<?xml version="1.0" encoding="UTF-8"?>
<svg id="Capa_2" data-name="Capa 2" xmlns="http://www.w3.org/2000/svg" viewBox="0 0 300 300">
  <defs>
    <style>
      .cls-1 {
        fill: #fff;
      }

      .cls-1, .cls-2 {
        stroke: #333;
        stroke-linecap: round;
        stroke-linejoin: round;
      }

      .cls-2 {
        fill: none;
      }
    </style>
  </defs>
  <g>
    <path class="cls-1" d="m116.06,159.28c-4.15,18.93,1.12,39.52,15.84,54.24,14.72,14.72,35.31,19.99,54.24,15.84"/>
    <path class="cls-1" d="m116.06,159.28c18.93-4.15,39.52,1.12,54.24,15.84,14.72,14.72,19.99,35.31,15.84,54.24"/>
    <line class="cls-1" x1="116.06" y1="159.28" x2="186.15" y2="229.36"/>
  </g>
  <g>
    <path class="cls-1" d="m135.39,159.28c-18.93-4.15-39.52,1.12-54.24,15.84-14.72,14.72-19.99,35.31-15.84,54.24"/>
    <path class="cls-1" d="m135.39,159.28c4.15,18.93-1.12,39.52-15.84,54.24-14.72,14.72-35.31,19.99-54.24,15.84"/>
    <line class="cls-1" x1="135.39" y1="159.28" x2="65.31" y2="229.36"/>
  </g>
  <g>
    <path class="cls-1" d="m234.7,159.28c-18.93-4.15-39.52,1.12-54.24,15.84-14.72,14.72-19.99,35.31-15.84,54.24"/>
    <path class="cls-1" d="m234.7,159.28c4.15,18.93-1.12,39.52-15.84,54.24-14.72,14.72-35.31,19.99-54.24,15.84"/>
    <line class="cls-1" x1="234.7" y1="159.28" x2="164.61" y2="229.36"/>
  </g>
  <g>
    <g>
      <path class="cls-2" d="m125.27,145.96c2.87-2.17,5.61-4.56,8.21-7.15,7.11-7.11,12.66-15.35,16.53-24.26,3.87,8.9,9.41,17.15,16.53,24.26,2.59,2.59,5.33,4.98,8.2,7.15"/>
      <circle class="cls-2" cx="150" cy="142.61" r="4.92"/>
    </g>
    <g>
      <g>
        <path class="cls-1" d="m135.39,70.64c-18.93-4.15-39.52,1.12-54.24,15.84-14.72,14.72-19.99,35.31-15.84,54.24"/>
        <path class="cls-1" d="m135.39,70.64c4.15,18.93-1.12,39.52-15.84,54.24-14.72,14.72-35.31,19.99-54.24,15.84"/>
        <line class="cls-1" x1="135.39" y1="70.64" x2="65.3" y2="140.72"/>
      </g>
      <g>
        <path class="cls-1" d="m164.61,70.64c18.93-4.15,39.52,1.12,54.24,15.84,14.72,14.72,19.99,35.31,15.84,54.24"/>
        <path class="cls-1" d="m164.61,70.64c-4.15,18.93,1.12,39.52,15.84,54.24,14.72,14.72,35.31,19.99,54.24,15.84"/>
        <line class="cls-1" x1="164.61" y1="70.64" x2="234.69" y2="140.72"/>
      </g>
    </g>
  </g>
</svg>